<svg width="36" height="23" viewBox="0 0 36 23" fill="none" xmlns="http://www.w3.org/2000/svg">
<path d="M35.3842 11.6216L24.2588 22.0287C23.969 22.2997 23.4997 22.2997 23.21 22.0287C22.9202 21.7576 22.9202 21.3186 23.21 21.0476L33.0694 11.8249L0.741723 11.8249C0.331749 11.8249 1.00162e-06 11.5146 1.03746e-06 11.1311C1.07331e-06 10.7476 0.331749 10.4372 0.741723 10.4372L33.0694 10.4372L23.21 1.2146C22.9202 0.94356 22.9202 0.504515 23.21 0.233541C23.3548 0.0980568 23.5446 0.0302792 23.7344 0.0302792C23.9242 0.0302792 24.1139 0.0980569 24.2588 0.233542L35.3843 10.6406C35.674 10.9115 35.674 11.3506 35.3842 11.6216Z" fill="black"/>
</svg>
